<svg xmlns="http://www.w3.org/2000/svg" viewBox="0 0 261 261"><defs><filter id="a" x="0" y="0" width="261" height="261" filterUnits="userSpaceOnUse"><feOffset dy="2"/><feGaussianBlur stdDeviation="7.5" result="b"/><feFlood flood-opacity=".1"/><feComposite operator="in" in2="b"/><feComposite in="SourceGraphic"/></filter></defs><g filter="url(#a)"><circle cx="108" cy="108" r="108" transform="translate(22.5 20.5)" fill="#fff"/></g><path d="M77.47 75.47h105.55v105.55H77.47Z" fill="#c00"/><path d="M98.91 128.25a8.02 8.02 0 0 1 8.03-8.03h6.08v-4.55h-6.16a12.6 12.6 0 0 0 0 25.22h11.84a1.3 1.3 0 0 0 1.21-1.17v-23.35a2.76 2.76 0 0 1 2.02-2.71 2.97 2.97 0 0 1 3.4 1.65c.04.07 2.98 5.1 7.4 12.72l7.15 12.31a1.32 1.32 0 0 0 1.36.8.92.92 0 0 0 .66-.95v-23.86a2.76 2.76 0 0 1 2.02-2.7 2.97 2.97 0 0 1 3.4 1.64c.04.07 2.6 4.5 6.86 11.8 3.74 6.45 7.62 13.12 7.7 13.23a1.32 1.32 0 0 0 1.35.8.92.92 0 0 0 .66-.94V109.3h-4.58v18.4s-7.62-13.16-7.99-13.75c-4.83-8.2-14-4.83-14 2.28v11.47s-7.62-13.16-7.99-13.75c-4.83-8.2-14-4.83-14 2.28v18.8a1.24 1.24 0 0 1-1.24 1.28h-7.19a8.05 8.05 0 0 1-7.99-8.06Z" fill="#fff"/><path d="M165.73 109.3v30.9a2.76 2.76 0 0 1-2.02 2.7 2.3 2.3 0 0 1-.7.12 3.14 3.14 0 0 1-2.7-1.72c-.04-.08-3.09-5.28-7.7-13.27-3.34-5.75-6.79-11.7-6.86-11.8a1.32 1.32 0 0 0-1.36-.8.92.92 0 0 0-.66.95v23.86a2.76 2.76 0 0 1-2.01 2.7 2.97 2.97 0 0 1-3.4-1.64c-.05-.08-2.87-4.91-7.16-12.32-3.59-6.2-7.33-12.6-7.36-12.72a1.32 1.32 0 0 0-1.36-.8.92.92 0 0 0-.66.95v23.35a3.07 3.07 0 0 1-3 3h-11.84a14.4 14.4 0 0 1 0-28.8h6.16v-4.66h-6.16a18.99 18.99 0 1 0 0 37.97h11.95c4.54 0 7.47-2.67 7.47-7.58v-10.82s7.63 13.16 8 13.74c4.83 8.21 14 4.84 14-2.27v-11.47s7.62 13.16 7.98 13.74c4.84 8.21 14 4.84 14-2.27V109.3Z" fill="#fff"/><path d="M187.13 177.43a1.8 1.8 0 1 1 0 3.6 1.8 1.8 0 0 1-1.83-1.8 1.83 1.83 0 0 1 1.83-1.8Zm0 3.34a1.47 1.47 0 0 0 1.47-1.54 1.49 1.49 0 1 0-2.97 0 1.52 1.52 0 0 0 1.5 1.54Zm-.7-2.6h.8c.52 0 .74.18.74.58a.57.57 0 0 1-.55.59l.59.92h-.37l-.59-.92h-.33v.92h-.33v-2.1Zm.33.95h.33c.3 0 .55 0 .55-.33 0-.3-.25-.33-.47-.33h-.44v.66Z" fill="#c00"/></svg>