<svg xmlns="http://www.w3.org/2000/svg" xmlns:xlink="http://www.w3.org/1999/xlink" viewBox="0 0 261 261"><defs><linearGradient id="a" x1="-2.04" y1="3.21" x2="2.79" y2="-1.95" gradientUnits="objectBoundingBox"><stop offset="0" stop-color="#811517"/><stop offset=".5" stop-color="#ca2027"/><stop offset="1" stop-color="#ed1a37"/></linearGradient><linearGradient id="c" x1="-1.47" y1="2.59" x2="3.37" y2="-2.56" xlink:href="#a"/><linearGradient id="d" x1="-2.59" y1="3.79" x2="2.21" y2="-1.32" xlink:href="#a"/><linearGradient id="e" x1=".28" y1=".88" x2=".74" y2=".08" xlink:href="#a"/><filter id="b" x="0" y="0" width="261" height="261" filterUnits="userSpaceOnUse"><feOffset dy="2"/><feGaussianBlur stdDeviation="7.5" result="b"/><feFlood flood-opacity=".1"/><feComposite operator="in" in2="b"/><feComposite in="SourceGraphic"/></filter></defs><g filter="url(#b)"><circle cx="108" cy="108" r="108" transform="translate(22.5 20.5)" fill="#fff"/></g><path d="M102.8 163.78v-5.3a1.46 1.46 0 1 0-2.9 0v5.3h-2.2V155h2.12v.81a3.04 3.04 0 0 1 2.18-.92 2.95 2.95 0 0 1 2.07.76 3.24 3.24 0 0 1 .9 2.5v5.59h-2.16Zm8.22-3.7a1.8 1.8 0 0 0 1.92 1.94 2.5 2.5 0 0 0 2-.82l1.33 1.29a4.2 4.2 0 0 1-3.33 1.39c-2.07 0-4.07-.94-4.07-4.49 0-2.86 1.55-4.49 3.83-4.49 2.45 0 3.84 1.79 3.84 4.2v.98Zm3.15-2.45a1.51 1.51 0 0 0-1.47-.91 1.54 1.54 0 0 0-1.47.91 2.63 2.63 0 0 0-.2.95h3.33a2.33 2.33 0 0 0-.19-.95m9.08 6.15a2.38 2.38 0 0 1-2.54-2.5v-4.33h-.92v-1.68h.92v-2.6h2.18v2.6h1.55v1.68h-1.55v4.2a.69.69 0 0 0 .76.79h.79v1.84Zm14.65 0h-1.8l-1.85-5.49-1.83 5.49h-1.79l-2.7-8.77h2.31l1.42 5.43 1.78-5.43h1.6l1.81 5.43 1.42-5.43h2.28Zm12.18-.97a3.66 3.66 0 0 1-2.73 1.07 3.55 3.55 0 0 1-2.7-1.07 4.48 4.48 0 0 1-1-3.42 4.42 4.42 0 0 1 1-3.38 3.55 3.55 0 0 1 2.7-1.08 3.66 3.66 0 0 1 2.73 1.08 4.42 4.42 0 0 1 1 3.38c0 1.6-.18 2.6-1 3.42m-1.68-5.54a1.34 1.34 0 0 0-1.02-.4 1.25 1.25 0 0 0-1 .4 4.78 4.78 0 0 0 0 4.25 1.32 1.32 0 0 0 1 .4 1.34 1.34 0 0 0 1.02-.4 4.78 4.78 0 0 0 0-4.25m11.18.13a1.46 1.46 0 0 0-2.57 1.1v5.27h-2.18v-8.76h2.13v.84a2.99 2.99 0 0 1 2.2-.95 2.64 2.64 0 0 1 2.07.82Zm10.29 6.38-2.15-3.65-.92 1.05v2.6h-2.18V151.8h2.18v6.8l2.91-3.6h2.63l-3.13 3.54 3.36 5.22Z" fill="#fff"/><path d="M200.03 91.5v3.72h-.55v-3.73h-1.13V91h2.78v.5Zm5.17 3.72v-3.46l-1.16 3.46h-.47l-1.15-3.46v3.46h-.55v-4.2h.78l1.16 3.52 1.15-3.52h.79v4.2Z" fill="#ca2027"/><path d="M416.77 258.23a4.07 4.07 0 0 0-1.57-1.31 3.49 3.49 0 0 0-1.05-.32 6.18 6.18 0 0 0-1.23-.1 6.44 6.44 0 0 0-2.4.42 6.36 6.36 0 0 0-1.02.55 6.52 6.52 0 0 0-.97.76 8.07 8.07 0 0 0-1.47 1.78 12.85 12.85 0 0 0-1.07 2.26 22.6 22.6 0 0 0-.8 2.65c-.23.95-.41 1.95-.62 3a44.8 44.8 0 0 0-.53 2.99 26.29 26.29 0 0 0-.26 2.67 10.41 10.41 0 0 0 .16 2.29 4.63 4.63 0 0 0 .73 1.8 4.07 4.07 0 0 0 1.58 1.32 4.44 4.44 0 0 0 1.05.32 6.9 6.9 0 0 0 2.55-.03 6.17 6.17 0 0 0 1.18-.37 6.72 6.72 0 0 0 2.04-1.36 8.38 8.38 0 0 0 1.47-1.84 12.13 12.13 0 0 0 1.05-2.28c.16-.45.32-.92.45-1.42.1-.42.24-.84.34-1.26.24-.95.45-1.94.63-2.97a32.25 32.25 0 0 0 .5-2.96 24.92 24.92 0 0 0 .23-2.63 8.54 8.54 0 0 0-.18-2.23 7.96 7.96 0 0 0-.79-1.73Z" transform="translate(-270.97 -140.99)" fill="url(#a)"/><path d="M291.65 258.16a4.07 4.07 0 0 0-1.58-1.32 6.15 6.15 0 0 0-1.05-.34 6 6 0 0 0-1.23-.1 6.44 6.44 0 0 0-2.39.42 6.35 6.35 0 0 0-1.02.55 6.5 6.5 0 0 0-.97.76 8.23 8.23 0 0 0-1.47 1.81 12.85 12.85 0 0 0-1.08 2.26 22.61 22.61 0 0 0-.79 2.65q-.35 1.42-.63 3c-.2 1.01-.4 2.04-.52 2.98a20.18 20.18 0 0 0-.24 2.68 10.4 10.4 0 0 0 .16 2.28 5.2 5.2 0 0 0 .73 1.84 4.08 4.08 0 0 0 1.58 1.31 4.44 4.44 0 0 0 1.05.32 6.9 6.9 0 0 0 2.55-.03 6.79 6.79 0 0 0 1.18-.36 6.1 6.1 0 0 0 1.07-.58 8.38 8.38 0 0 0 2.44-2.63 12.13 12.13 0 0 0 1.05-2.28c.16-.45.32-.94.45-1.44.1-.4.24-.82.31-1.24.24-.94.42-1.94.63-2.96.08-.48.19-.95.27-1.42.08-.53.18-1.05.23-1.55a24.9 24.9 0 0 0 .24-2.62 8.54 8.54 0 0 0-.19-2.24 7.63 7.63 0 0 0-.78-1.75Z" transform="translate(-178.7 -140.92)" fill="url(#c)"/><path d="M539.75 257.2a4.44 4.44 0 0 0-1.97-.9 6.18 6.18 0 0 0-1.23-.1 6.9 6.9 0 0 0-1.29.1 8.3 8.3 0 0 0-1.16.32 6.5 6.5 0 0 0-2.02 1.31 8.34 8.34 0 0 0-1.5 1.82 11.47 11.47 0 0 0-1.07 2.28 23.04 23.04 0 0 0-.82 2.68c-.23.94-.44 1.94-.63 3.02-.2 1.04-.39 2.04-.52 3.01a26.05 26.05 0 0 0-.26 2.7 10.65 10.65 0 0 0 .15 2.31 5.74 5.74 0 0 0 .74 1.84 3.93 3.93 0 0 0 .7.76 3.04 3.04 0 0 0 .87.55 4.32 4.32 0 0 0 1.08.34 6.44 6.44 0 0 0 1.26.1 6.68 6.68 0 0 0 1.29-.13 5.64 5.64 0 0 0 1.18-.36 6.1 6.1 0 0 0 1.07-.58 9.37 9.37 0 0 0 1-.79 7.96 7.96 0 0 0 1.47-1.86 14.4 14.4 0 0 0 1.08-2.31c.16-.45.31-.95.45-1.42a16.2 16.2 0 0 0 .47-1.7c.2-.85.36-1.74.52-2.63l.24-1.37c.08-.52.18-1.05.23-1.54a25.35 25.35 0 0 0 .24-2.66 8.84 8.84 0 0 0-.18-2.25 4.63 4.63 0 0 0-.74-1.81 2.87 2.87 0 0 0-.65-.74Z" transform="translate(-362.06 -140.77)" fill="url(#d)"/><path d="M252.4 68.5a5.6 5.6 0 0 0-1.18.33 7.4 7.4 0 0 0-1.1.58 9.38 9.38 0 0 0-1 .79 9.02 9.02 0 0 0-1.55 1.89 12.3 12.3 0 0 0-1.13 2.36 32.1 32.1 0 0 0-.84 2.78c-.23 1-.44 2.02-.65 3.12-.14.66-1.21 6.96-2.05 12.05l-1.16 6.62-.08.42-.08.36c-.07.53-.15 1.05-.2 1.55a5.42 5.42 0 0 0-.06.55l-.02.58a.1.1 0 0 0 .02.08 6.7 6.7 0 0 0 .1 1.47 4.53 4.53 0 0 0 .58 1.57 4.69 4.69 0 0 0 .58.66 3.52 3.52 0 0 0 1.62.76.33.33 0 0 0 .16.03l-2.34 7.5a6.86 6.86 0 0 1-.73 0 11.46 11.46 0 0 1-2.44-.31 9.2 9.2 0 0 1-2.02-.74l-.34-.2a13.9 13.9 0 0 1-1.24-.74 7.7 7.7 0 0 1-1.5-1.42 8.03 8.03 0 0 1-1.41-2.88 12.92 12.92 0 0 1-1.4 1.96 10.41 10.41 0 0 1-.76.77l-.02.05-.16.13a4.7 4.7 0 0 0-.37.34h-.02l-.4.34a12.7 12.7 0 0 1-1.2.87 10.74 10.74 0 0 1-4.52 1.68 13.97 13.97 0 0 1-2.6.1 12.43 12.43 0 0 1-2.44-.32 10.62 10.62 0 0 1-2.18-.73 9.74 9.74 0 0 1-1.84-1.1 6.98 6.98 0 0 1-1.39-1.4 8.12 8.12 0 0 1-1.39-3.22 15.06 15.06 0 0 1-.29-3.83 32.38 32.38 0 0 1 .45-4.13q.35-2.08.79-4.1c.29-1.33.57-2.7.92-4.06a33.91 33.91 0 0 1 1.23-4.01 18.68 18.68 0 0 1 1.81-3.63 13.34 13.34 0 0 1 2.63-2.94 11.71 11.71 0 0 1 1.89-1.23 12.16 12.16 0 0 1 2.18-.87 13.98 13.98 0 0 1 4.82-.57 15.96 15.96 0 0 1 2.4.31 8.57 8.57 0 0 1 2.04.71 7.62 7.62 0 0 1 1.7 1.18 8.1 8.1 0 0 1 1.27 1.52c.07-.5.13-1 .23-1.52.24-1.28.53-2.65.87-4.04a87.7 87.7 0 0 1 1-4.04c.37-1.26.76-2.47 1.2-3.57.16-.37.32-.74.5-1.1.06-.1.14-.26.21-.45.03-.02.03-.05.06-.1.08-.13.13-.26.23-.42.19-.34.37-.65.58-.97a12.27 12.27 0 0 1 1.26-1.57 11.8 11.8 0 0 1 6.72-3.84A74.09 74.09 0 0 0 118.14 131a8.42 8.42 0 0 0 3.62-3.23l.05-.05c.03-.03.05-.08.08-.1a11.7 11.7 0 0 0 1.08-2.23 20.57 20.57 0 0 0 .76-2.65c.02-.19 5.64-30.74 5.98-32.58h-4.9l2.42-8.13 3.83-.03.42-2.13.13-.86.13-.68c.23-1.32.5-2.79.73-3.84.21-.86.42-1.6.63-2.25a22.06 22.06 0 0 1 1.03-2.68 20.36 20.36 0 0 1 1.97-3.41 19.06 19.06 0 0 1 11.57-7.38 20.16 20.16 0 0 1 4-.4h.18a18.77 18.77 0 0 1 3.75.38 12.95 12.95 0 0 1 1.28.34l.08.02-2.67 8.61-.1-.08-.16-.08a7.29 7.29 0 0 0-1.34-.44 7.89 7.89 0 0 0-1.6-.16h-.05a9.24 9.24 0 0 0-1.73.16 7.85 7.85 0 0 0-1.47.44l-.06.03-.07.03a7 7 0 0 0-1.1.52 8.86 8.86 0 0 0-1 .74 8.26 8.26 0 0 0-1.53 1.76 10.7 10.7 0 0 0-1.05 2.2 18.76 18.76 0 0 0-.73 2.6c-.03.13-.16.86-.26 1.52l-.21 1.13-.56 3.88 5.88-.02-2.41 8.18-4.8-.02-4.52 24.64-1.15 5.99c-.26 1.42-.5 2.6-.84 3.83a28.24 28.24 0 0 1-1.44 4.15 18.95 18.95 0 0 1-2.03 3.49 19.9 19.9 0 0 1-2.75 3.02 19 19 0 0 1-2.47 1.86 22.6 22.6 0 0 1-2.36 1.29A74.07 74.07 0 0 0 252.4 68.49Zm-75.44 23.4a42.66 42.66 0 0 1-.58 4.3 49.99 49.99 0 0 1-.89 4.34 25.45 25.45 0 0 1-1.23 3.62 15.97 15.97 0 0 1-1.73 3.07 16.38 16.38 0 0 1-2.42 2.68 18.33 18.33 0 0 1-2.18 1.68 16.16 16.16 0 0 1-2.67 1.41 16.63 16.63 0 0 1-3.18 1 18.39 18.39 0 0 1-3.7.4 16.73 16.73 0 0 1-3.57-.32 11.1 11.1 0 0 1-2.86-.94 11.24 11.24 0 0 1-2.2-1.37 10.4 10.4 0 0 1-3.1-4.33 12.45 12.45 0 0 1-.66-3.1 21.75 21.75 0 0 1 .06-3.67 55.58 55.58 0 0 1 1.62-8.8 24.28 24.28 0 0 1 1.32-3.62 17.59 17.59 0 0 1 1.8-3.04 19.17 19.17 0 0 1 2.47-2.63 18 18 0 0 1 2.18-1.6 18.2 18.2 0 0 1 2.68-1.34 18.4 18.4 0 0 1 3.15-.92 17.73 17.73 0 0 1 3.62-.31 15.42 15.42 0 0 1 3.47.37 12.8 12.8 0 0 1 2.78.94 10.79 10.79 0 0 1 2.15 1.37 9 9 0 0 1 1.55 1.62 9.86 9.86 0 0 1 1.47 2.6 11.87 11.87 0 0 1 .68 3 23.66 23.66 0 0 1-.03 3.6Zm32.86 0a42.63 42.63 0 0 1-.57 4.3 49.99 49.99 0 0 1-.9 4.34 25.43 25.43 0 0 1-1.23 3.62 17.5 17.5 0 0 1-1.73 3.07 16.38 16.38 0 0 1-2.42 2.68 18.33 18.33 0 0 1-2.18 1.68 16.16 16.16 0 0 1-2.67 1.41 16.64 16.64 0 0 1-3.18 1 18.39 18.39 0 0 1-3.7.4 15.2 15.2 0 0 1-3.57-.32 12.2 12.2 0 0 1-2.86-.92 11.24 11.24 0 0 1-2.2-1.36 10.5 10.5 0 0 1-1.6-1.65 9.98 9.98 0 0 1-1.5-2.68 12.45 12.45 0 0 1-.65-3.1 21.75 21.75 0 0 1 .05-3.68 57.66 57.66 0 0 1 1.63-8.82 24.29 24.29 0 0 1 1.3-3.62 17.59 17.59 0 0 1 1.82-3.04 19.17 19.17 0 0 1 2.47-2.63 18 18 0 0 1 2.18-1.6 19.26 19.26 0 0 1 2.65-1.34 18.4 18.4 0 0 1 3.15-.92 17.73 17.73 0 0 1 3.62-.31 15.42 15.42 0 0 1 3.46.37 12.8 12.8 0 0 1 2.79.94 10.79 10.79 0 0 1 2.15 1.37 9 9 0 0 1 1.55 1.62 9.86 9.86 0 0 1 1.47 2.6 11.87 11.87 0 0 1 .68 3 20.52 20.52 0 0 1 0 3.6Z" transform="translate(-54.6 30.56)" fill="url(#e)"/><path d="M145.36 129.81a17.25 17.25 0 0 0 .13-.42c.18-.81.36-1.7.52-2.6.08-.47.16-.92.21-1.34a82.3 82.3 0 0 1-.87 4.36Z" fill="#221f1f"/><path d="M154.54 115.9a9.86 9.86 0 0 0-1.47-2.6 11.14 11.14 0 0 0-1.55-1.63 10.79 10.79 0 0 0-2.15-1.36 11.95 11.95 0 0 0-2.78-.95 15.6 15.6 0 0 0-3.47-.36 17.73 17.73 0 0 0-6.77 1.23 16.68 16.68 0 0 0-2.65 1.34 16.13 16.13 0 0 0-2.18 1.6 16.56 16.56 0 0 0-2.46 2.63 17.59 17.59 0 0 0-1.82 3.04 25.4 25.4 0 0 0-1.3 3.62c-.38 1.31-.72 2.76-1 4.39s-.5 3.07-.64 4.43a21.75 21.75 0 0 0-.05 3.68 12.45 12.45 0 0 0 .66 3.1 10.4 10.4 0 0 0 3.1 4.33 10.12 10.12 0 0 0 2.2 1.36 12.2 12.2 0 0 0 2.86.92 16.73 16.73 0 0 0 3.57.32 18.39 18.39 0 0 0 3.7-.4 20.5 20.5 0 0 0 3.17-1 18.4 18.4 0 0 0 2.68-1.41 17.67 17.67 0 0 0 4.6-4.36 15.97 15.97 0 0 0 1.73-3.07 22.54 22.54 0 0 0 1.23-3.62c.34-1.32.63-2.76.9-4.34s.46-2.99.57-4.3a20.24 20.24 0 0 0 0-3.57 10.81 10.81 0 0 0-.68-3.01Zm-7.82 5.36a24.94 24.94 0 0 1-.24 2.62l-.23 1.55q-.3 1.98-.74 3.94a15.67 15.67 0 0 1-.47 1.68c-.13.5-.29.97-.44 1.41a11.4 11.4 0 0 1-1.05 2.29 8.38 8.38 0 0 1-2.45 2.62 6.1 6.1 0 0 1-1.07.58 7.77 7.77 0 0 1-1.18.37 6.67 6.67 0 0 1-1.29.13 6.44 6.44 0 0 1-1.26-.1 6.13 6.13 0 0 1-1.05-.32 4.86 4.86 0 0 1-.87-.55 3.93 3.93 0 0 1-.7-.76 5.59 5.59 0 0 1-.74-1.82 10.53 10.53 0 0 1-.16-2.28 20.05 20.05 0 0 1 .27-2.68c.13-.94.31-1.94.52-2.99s.4-2.04.63-2.99.5-1.84.79-2.65a13.8 13.8 0 0 1 1.07-2.26 7.52 7.52 0 0 1 1.47-1.78 6.5 6.5 0 0 1 .97-.76 9.77 9.77 0 0 1 1.03-.55 5.54 5.54 0 0 1 1.13-.32 6.44 6.44 0 0 1 1.26-.1 5.66 5.66 0 0 1 2.28.42 3.03 3.03 0 0 1 .87.55 3.3 3.3 0 0 1 .7.76 4.51 4.51 0 0 1 .74 1.79 9.53 9.53 0 0 1 .21 2.2ZM72.6 165.77a18.62 18.62 0 0 0 2.76-3.02 18.13 18.13 0 0 0 2.02-3.49 28.25 28.25 0 0 0 1.44-4.15c.34-1.23.58-2.41.84-3.83l1.16-5.98 4.43-24.65 4.8.03 2.42-8.2-5.88.04.55-3.89.2-1.13a46 46 0 0 1 .27-1.52 25.03 25.03 0 0 1 .73-2.6 10.7 10.7 0 0 1 1.05-2.2 8.26 8.26 0 0 1 1.53-1.76 8.86 8.86 0 0 1 1-.73 7 7 0 0 1 1.1-.53c.02 0 .05-.03.08-.03l.05-.02a7.85 7.85 0 0 1 1.47-.45 9.24 9.24 0 0 1 1.73-.15h.05a7.7 7.7 0 0 1 1.6.15 5.74 5.74 0 0 1 1.34.45l.16.08.1.08 2.67-8.61-.07-.03a10.29 10.29 0 0 0-1.29-.34 17.02 17.02 0 0 0-3.75-.37h-.19a20.17 20.17 0 0 0-3.99.4 20.53 20.53 0 0 0-3.49 1.05 16.73 16.73 0 0 0-2.96 1.55 18.69 18.69 0 0 0-2.4 1.8 18.05 18.05 0 0 0-2.7 2.97 18.7 18.7 0 0 0-1.98 3.4c-.36.82-.68 1.69-1.02 2.68a22.33 22.33 0 0 0-.63 2.26 50.44 50.44 0 0 0-.74 3.83l-.13.69c-.05.28-.1.57-.13.86l-.42 2.13-3.83.02-2.42 8.14h4.91l-5.98 32.57a20.57 20.57 0 0 1-.76 2.65 10.35 10.35 0 0 1-1.08 2.23c-.02.03-.05.08-.08.1l-.05.06a8.42 8.42 0 0 1-3.62 3.23 70.53 70.53 0 0 0 4.22 7.37 18.6 18.6 0 0 0 2.37-1.28 17.2 17.2 0 0 0 2.54-1.86Z" fill="#fff"/><path d="m112.5 129.81-.32 1.24c.16-.53.31-1.08.47-1.68.18-.82.37-1.71.53-2.6q.11-.71.23-1.34l-.26 1.41c-.24 1.03-.45 2.03-.66 2.97Z" fill="#221f1f"/><path d="M121.68 115.9a9.86 9.86 0 0 0-1.47-2.6 11.13 11.13 0 0 0-1.55-1.63 10.09 10.09 0 0 0-2.15-1.36 11.54 11.54 0 0 0-2.78-.95 15.77 15.77 0 0 0-3.47-.36 17.73 17.73 0 0 0-6.77 1.23 18.2 18.2 0 0 0-2.68 1.34 16.15 16.15 0 0 0-2.17 1.6 16.55 16.55 0 0 0-2.47 2.63 17.6 17.6 0 0 0-1.81 3.04 25.4 25.4 0 0 0-1.31 3.62c-.37 1.31-.71 2.76-1 4.39s-.53 3.07-.63 4.4a21.75 21.75 0 0 0-.06 3.68 12.45 12.45 0 0 0 .66 3.1 9.67 9.67 0 0 0 1.5 2.68 10.5 10.5 0 0 0 1.6 1.65 10.12 10.12 0 0 0 2.2 1.37 13.55 13.55 0 0 0 2.86.94 16.57 16.57 0 0 0 3.57.32 17.8 17.8 0 0 0 6.88-1.4 17.02 17.02 0 0 0 4.85-3.1 16.38 16.38 0 0 0 2.42-2.67 15.97 15.97 0 0 0 1.73-3.07 22.54 22.54 0 0 0 1.23-3.63c.35-1.3.63-2.75.9-4.33s.47-2.99.57-4.3a20.22 20.22 0 0 0 0-3.57 9.96 9.96 0 0 0-.65-3.02Zm-7.82 5.36a24.91 24.91 0 0 1-.24 2.62l-.23 1.55-.24 1.34c-.16.92-.34 1.78-.52 2.6-.13.58-.3 1.13-.48 1.68-.13.5-.28.97-.44 1.44a13.07 13.07 0 0 1-1.05 2.29 8.38 8.38 0 0 1-2.44 2.62 6.09 6.09 0 0 1-1.08.58 7.78 7.78 0 0 1-1.18.37 6.9 6.9 0 0 1-2.55.02 6.13 6.13 0 0 1-1.05-.31 4.86 4.86 0 0 1-.86-.55 3.93 3.93 0 0 1-.71-.77 5.5 5.5 0 0 1-.74-1.83 10.4 10.4 0 0 1-.15-2.29 25.25 25.25 0 0 1 .23-2.67c.13-.95.32-1.94.53-3q.27-1.57.63-2.99c.23-.94.5-1.83.79-2.65a11.95 11.95 0 0 1 1.07-2.25 9.05 9.05 0 0 1 1.47-1.82 8.82 8.82 0 0 1 .97-.76 9.76 9.76 0 0 1 1.03-.55 5.54 5.54 0 0 1 1.13-.31 6.44 6.44 0 0 1 1.26-.1 6.17 6.17 0 0 1 1.23.1 4.47 4.47 0 0 1 1.05.34 3.25 3.25 0 0 1 .87.55 3.3 3.3 0 0 1 .7.76 5.44 5.44 0 0 1 .74 1.79 7.26 7.26 0 0 1 .26 2.2Zm73.2-26.28a10.7 10.7 0 0 0-1.26 1.58c-.21.31-.4.63-.58.97l-.23.42c-.03.02-.03.05-.06.1a2.96 2.96 0 0 0-.2.44c-.16.37-.35.71-.5 1.1-.45 1.1-.85 2.31-1.21 3.57a96.21 96.21 0 0 0-1 4.05c-.32 1.39-.63 2.75-.87 4.04-.1.52-.16 1.02-.24 1.52a9.04 9.04 0 0 0-1.26-1.52 8.27 8.27 0 0 0-1.7-1.18 8.57 8.57 0 0 0-2.05-.71 11.42 11.42 0 0 0-2.39-.32 13.98 13.98 0 0 0-7 1.45 11.71 11.71 0 0 0-1.9 1.23 11.23 11.23 0 0 0-2.62 2.94 18.68 18.68 0 0 0-1.81 3.62 33.9 33.9 0 0 0-1.23 4.02c-.35 1.36-.63 2.73-.92 4.07s-.55 2.73-.8 4.1a37.95 37.95 0 0 0-.44 4.11 18.03 18.03 0 0 0 .3 3.83 8.68 8.68 0 0 0 1.38 3.23 6.99 6.99 0 0 0 1.4 1.4 9.74 9.74 0 0 0 1.83 1.1 11.81 11.81 0 0 0 2.18.73 12.42 12.42 0 0 0 2.44.31 16.67 16.67 0 0 0 2.6-.1 11.7 11.7 0 0 0 2.34-.57 11.33 11.33 0 0 0 2.18-1.1c.39-.27.78-.55 1.2-.87a4.55 4.55 0 0 0 .4-.34h.02a2.27 2.27 0 0 0 .37-.34l.16-.13.02-.05c.27-.24.5-.5.76-.77a12.21 12.21 0 0 0 1.4-1.96 8.3 8.3 0 0 0 1.44 2.88 7.7 7.7 0 0 0 1.5 1.42 10.93 10.93 0 0 0 1.23.73 3.87 3.87 0 0 0 .34.21 9.71 9.71 0 0 0 2.03.74 11.46 11.46 0 0 0 2.44.31h.73l2.34-7.5a.33.33 0 0 0-.16-.03 4.45 4.45 0 0 1-.9-.29 4.37 4.37 0 0 1-.73-.47 3.45 3.45 0 0 1-.57-.66 4.17 4.17 0 0 1-.58-1.57 8.6 8.6 0 0 1-.1-1.47.1.1 0 0 0-.03-.08s.02-.4.02-.58a4.8 4.8 0 0 1 .06-.55c.05-.5.1-1 .2-1.55l.09-.36a2.84 2.84 0 0 1 .08-.42l1.15-6.62c.87-5.09 1.92-11.39 2.05-12.04.2-1.1.42-2.16.65-3.13a24.84 24.84 0 0 1 .84-2.78 12.29 12.29 0 0 1 1.13-2.36 9.02 9.02 0 0 1 1.55-1.9 6.9 6.9 0 0 1 2.1-1.36 5.6 5.6 0 0 1 1.18-.34 72.38 72.38 0 0 0-4.01-7.92 11.14 11.14 0 0 0-6.78 3.72Zm-7.74 26.25a25.4 25.4 0 0 1-.24 2.65l-.23 1.55-.24 1.36c-.16.92-.34 1.79-.53 2.63a16.17 16.17 0 0 1-.47 1.7c-.13.5-.29.98-.44 1.42a13.4 13.4 0 0 1-1.08 2.31 8.53 8.53 0 0 1-1.47 1.87 9.37 9.37 0 0 1-1 .78 6.08 6.08 0 0 1-1.08.58 7.76 7.76 0 0 1-1.18.37 6.67 6.67 0 0 1-1.29.13 6.44 6.44 0 0 1-1.26-.1 4.69 4.69 0 0 1-1.07-.35 3.03 3.03 0 0 1-.87-.55 3.93 3.93 0 0 1-.7-.76 5.74 5.74 0 0 1-.74-1.84 10.77 10.77 0 0 1-.16-2.3 20.42 20.42 0 0 1 .26-2.7c.13-.98.32-1.98.53-3.02s.42-2.08.63-3.02a24.68 24.68 0 0 1 .81-2.68 13.12 13.12 0 0 1 1.08-2.28 8.34 8.34 0 0 1 1.5-1.81 6.5 6.5 0 0 1 2.02-1.32 5.33 5.33 0 0 1 1.15-.31 6.71 6.71 0 0 1 1.29-.1 8.65 8.65 0 0 1 1.23.1 4.7 4.7 0 0 1 1.08.34 3.16 3.16 0 0 1 .9.55 3.93 3.93 0 0 1 .7.76 4.63 4.63 0 0 1 .73 1.81 18.92 18.92 0 0 1 .14 2.23ZM102.91 163.62v-5.28a1.46 1.46 0 1 0-2.9 0v5.28h-2.19v-8.72h2.13v.82a2.97 2.97 0 0 1 2.18-.9 2.84 2.84 0 0 1 2.04.77 3.21 3.21 0 0 1 .9 2.46v5.6h-2.16Zm8.22-3.68a1.8 1.8 0 0 0 1.91 1.95 2.41 2.41 0 0 0 1.97-.82l1.31 1.29a4.12 4.12 0 0 1-3.3 1.36c-2.05 0-4.05-.94-4.05-4.46 0-2.83 1.55-4.46 3.8-4.46 2.45 0 3.82 1.78 3.82 4.17v.97Zm3.1-2.44a1.5 1.5 0 0 0-1.47-.89 1.56 1.56 0 0 0-1.47.9 2.63 2.63 0 0 0-.21.94h3.3a1.6 1.6 0 0 0-.16-.95Zm9.05 6.12a2.35 2.35 0 0 1-2.52-2.5v-4.33h-.92v-1.65h.92v-2.57h2.18v2.57h1.55v1.65h-1.55v4.18a.69.69 0 0 0 .76.79h.79v1.83h-1.2Zm14.57 0h-1.78l-1.81-5.49-1.84 5.49h-1.79l-2.67-8.72h2.3l1.42 5.39 1.79-5.39h1.6l1.78 5.39 1.42-5.39h2.28Zm12.15-.97a3.55 3.55 0 0 1-2.7 1.07 3.6 3.6 0 0 1-2.7-1.07c-.78-.82-1-1.81-1-3.41a4.42 4.42 0 0 1 1-3.4 3.93 3.93 0 0 1 5.41 0 4.42 4.42 0 0 1 1 3.4c-.01 1.6-.22 2.6-1 3.4Zm-1.68-5.51a1.34 1.34 0 0 0-1.02-.4 1.25 1.25 0 0 0-1 .4 2.96 2.96 0 0 0-.5 2.1 3.03 3.03 0 0 0 .5 2.12 1.32 1.32 0 0 0 1 .4 1.34 1.34 0 0 0 1.02-.4 3.03 3.03 0 0 0 .5-2.12 3 3 0 0 0-.5-2.1Zm11.1.13a1.46 1.46 0 0 0-2.57 1.07v5.25h-2.18v-8.71h2.13v.84a2.99 2.99 0 0 1 2.2-.95 2.55 2.55 0 0 1 2.04.82Zm10.27 6.35-2.16-3.65-.92 1.05v2.6h-2.17V151.7h2.17v6.77l2.9-3.57h2.62l-3.1 3.52 3.36 5.2Z" fill="#fff"/></svg>